<svg width="30" height="30" viewBox="0 0 30 30" fill="none" xmlns="http://www.w3.org/2000/svg">
<path d="M24.8079 6.99381C24.8079 5.99677 23.9998 5.19171 23.0065 5.19171C22.0131 5.19171 21.2043 5.99677 21.2043 6.99381C21.2043 7.98718 22.0131 8.79224 23.0065 8.79224C23.9998 8.79224 24.8079 7.98718 24.8079 6.99381Z" fill="url(#paint0_linear_370_787)"/>
<path d="M27.2082 21.0608C27.1415 22.5234 26.8969 23.3181 26.6938 23.8459C26.4209 24.5457 26.0955 25.0461 25.5677 25.5709C25.0458 26.0958 24.5454 26.4205 23.8456 26.6903C23.3178 26.8964 22.5202 27.1417 21.0576 27.2114C19.4764 27.2811 19.0079 27.296 14.9981 27.296C10.9921 27.296 10.5199 27.2811 8.93867 27.2114C7.47611 27.1417 6.68217 26.8964 6.15432 26.6903C5.45084 26.4205 4.95418 26.0958 4.42933 25.5709C3.90076 25.0461 3.57535 24.5457 3.30625 23.8459C3.1031 23.3181 2.85479 22.5234 2.79175 21.0608C2.71469 19.4796 2.70057 19.0037 2.70057 15.0021C2.70057 10.9924 2.71469 10.5201 2.79175 8.93892C2.85479 7.47635 3.1031 6.68241 3.30625 6.15012C3.57535 5.45108 3.90076 4.95364 4.42933 4.4288C4.95418 3.90473 5.45084 3.57926 6.15432 3.3065C6.68217 3.09967 7.47611 2.85799 8.93867 2.78832C10.5199 2.7186 10.9921 2.70081 14.9981 2.70081C19.0079 2.70081 19.4764 2.7186 21.0576 2.78832C22.5202 2.85799 23.3178 3.09967 23.8456 3.3065C24.5454 3.57926 25.0458 3.90473 25.5677 4.4288C26.0955 4.95364 26.4209 5.45108 26.6938 6.15012C26.8969 6.68241 27.1415 7.47635 27.2082 8.93892C27.2816 10.5201 27.2994 10.9924 27.2994 15.0021C27.2994 19.0037 27.2816 19.4796 27.2082 21.0608ZM29.9088 8.81588C29.8354 7.2176 29.5834 6.12565 29.209 5.17459C28.828 4.18789 28.3172 3.3517 27.481 2.5155C26.6486 1.68303 25.8124 1.17225 24.8257 0.786793C23.8709 0.416121 22.7826 0.161093 21.1836 0.0914268C19.5846 0.0143127 19.0739 0.000244141 14.9981 0.000244141C10.9261 0.000244141 10.4117 0.0143127 8.81269 0.0914268C7.21735 0.161093 6.12986 0.416121 5.17062 0.786793C4.18765 1.17225 3.35145 1.68303 2.51898 2.5155C1.68279 3.3517 1.17201 4.18789 0.787269 5.17459C0.416596 6.12565 0.16457 7.2176 0.0874558 8.81588C0.0177914 10.4149 0 10.9264 0 15.0021C0 19.0741 0.0177914 19.5848 0.0874558 21.1838C0.16457 22.7792 0.416596 23.8703 0.787269 24.8259C1.17201 25.8089 1.68279 26.6488 2.51898 27.4813C3.35145 28.3137 4.18765 28.8282 5.17062 29.213C6.12986 29.5836 7.21735 29.8357 8.81269 29.9091C10.4117 29.9825 10.9261 30.0002 14.9981 30.0002C19.0739 30.0002 19.5846 29.9825 21.1836 29.9091C22.7826 29.8357 23.8709 29.5836 24.8257 29.213C25.8124 28.8282 26.6486 28.3137 27.481 27.4813C28.3172 26.6488 28.828 25.8089 29.209 24.8259C29.5834 23.8703 29.8354 22.7792 29.9088 21.1838C29.9822 19.5848 30 19.0741 30 15.0021C30 10.9264 29.9822 10.4149 29.9088 8.81588Z" fill="url(#paint1_linear_370_787)"/>
<path d="M14.9983 19.9979C12.2384 19.9979 9.99891 17.762 9.99891 15.0021C9.99891 12.2378 12.2384 9.9991 14.9983 9.9991C17.759 9.9991 20.0014 12.2378 20.0014 15.0021C20.0014 17.762 17.759 19.9979 14.9983 19.9979ZM14.9983 7.29481C10.7439 7.29481 7.29834 10.7478 7.29834 15.0021C7.29834 19.2528 10.7439 22.7021 14.9983 22.7021C19.2527 22.7021 22.702 19.2528 22.702 15.0021C22.702 10.7478 19.2527 7.29481 14.9983 7.29481Z" fill="url(#paint2_linear_370_787)"/>
<defs>
<linearGradient id="paint0_linear_370_787" x1="0.270598" y1="29.6901" x2="27.5013" y2="2.45951" gradientUnits="userSpaceOnUse">
<stop stop-color="#FFD521"/>
<stop offset="0.05" stop-color="#FFD521"/>
<stop offset="0.501119" stop-color="#F50000"/>
<stop offset="0.95" stop-color="#B900B4"/>
<stop offset="0.950079" stop-color="#B900B4"/>
<stop offset="1" stop-color="#B900B4"/>
</linearGradient>
<linearGradient id="paint1_linear_370_787" x1="0.270596" y1="29.7274" x2="27.5237" y2="2.47436" gradientUnits="userSpaceOnUse">
<stop stop-color="#FFD521"/>
<stop offset="0.05" stop-color="#FFD521"/>
<stop offset="0.501119" stop-color="#F50000"/>
<stop offset="0.95" stop-color="#B900B4"/>
<stop offset="0.950079" stop-color="#B900B4"/>
<stop offset="1" stop-color="#B900B4"/>
</linearGradient>
<linearGradient id="paint2_linear_370_787" x1="0.277807" y1="29.7282" x2="27.5243" y2="2.48173" gradientUnits="userSpaceOnUse">
<stop stop-color="#FFD521"/>
<stop offset="0.05" stop-color="#FFD521"/>
<stop offset="0.501119" stop-color="#F50000"/>
<stop offset="0.95" stop-color="#B900B4"/>
<stop offset="0.950079" stop-color="#B900B4"/>
<stop offset="1" stop-color="#B900B4"/>
</linearGradient>
</defs>
</svg>
