<svg width="30" height="30" viewBox="0 0 30 30" fill="none" xmlns="http://www.w3.org/2000/svg">
<g clip-path="url(#clip0_375_1153)">
<path d="M29.4025 7.73176C29.2329 7.09353 28.8986 6.51104 28.4332 6.04258C27.9677 5.57413 27.3874 5.23614 26.7502 5.06244C24.4048 4.43176 15.0298 4.43176 15.0298 4.43176C15.0298 4.43176 5.65479 4.43176 3.30933 5.06244C2.6722 5.23614 2.09186 5.57413 1.62639 6.04258C1.16093 6.51104 0.826667 7.09353 0.657058 7.73176C0.0297852 10.0874 0.0297852 14.9999 0.0297852 14.9999C0.0297852 14.9999 0.0297852 19.9124 0.657058 22.2681C0.826667 22.9064 1.16093 23.4888 1.62639 23.9573C2.09186 24.4258 2.6722 24.7638 3.30933 24.9374C5.65479 25.5681 15.0298 25.5681 15.0298 25.5681C15.0298 25.5681 24.4048 25.5681 26.7502 24.9374C27.3874 24.7638 27.9677 24.4258 28.4332 23.9573C28.8986 23.4888 29.2329 22.9064 29.4025 22.2681C30.0298 19.9124 30.0298 14.9999 30.0298 14.9999C30.0298 14.9999 30.0298 10.0874 29.4025 7.73176Z" fill="#FF0302"/>
<path d="M11.9615 19.4609V10.5393L19.8025 15.0001L11.9615 19.4609Z" fill="#FEFEFE"/>
</g>
<defs>
<clipPath id="clip0_375_1153">
<rect width="30" height="30" fill="white"/>
</clipPath>
</defs>
</svg>
